<?xml version="1.0" encoding="UTF-8"?>
<svg width="295px" height="42px" viewBox="0 0 295 42" version="1.1" xmlns="http://www.w3.org/2000/svg" xmlns:xlink="http://www.w3.org/1999/xlink">
    <title>Combined Shape</title>
    <g id="CV-Baby" stroke="none" stroke-width="1" fill="none" fill-rule="evenodd">
        <g id="Desktop" transform="translate(-39.000000, -64.000000)" fill="#151217">
            <path d="M310.846358,91.6561364 C312.082835,91.6561364 312.082835,91.6561364 313.053403,92.2810227 C314.023971,92.9059091 314.023971,92.9059091 314.579057,94.0825568 C315.134142,95.2592045 315.134142,95.2592045 315.134142,96.9144886 C315.134142,98.5697727 315.134142,98.5697727 314.582381,99.7497443 C314.030619,100.929716 314.030619,100.929716 313.066699,101.564574 C312.102778,102.199432 312.102778,102.199432 310.866301,102.199432 C309.935619,102.199432 309.935619,102.199432 309.347295,101.886989 C308.758971,101.574545 308.758971,101.574545 308.426585,101.155739 C308.094199,100.736932 308.094199,100.736932 307.91471,100.411193 L307.91471,100.411193 L307.795051,100.411193 L307.795051,105.829091 L305.807381,105.829091 L305.807381,91.7890909 L307.748517,91.7890909 L307.748517,93.444375 L307.91471,93.444375 L307.989962,93.31275 C308.152699,93.0415227 308.152699,93.0415227 308.41329,92.7064773 C308.739028,92.2876705 308.739028,92.2876705 309.317381,91.9719034 C309.895733,91.6561364 309.895733,91.6561364 310.846358,91.6561364 Z M166.369108,91.6561364 C166.980699,91.6561364 166.980699,91.6561364 167.668739,91.7990625 C168.356778,91.9419886 168.356778,91.9419886 168.958398,92.3209091 C169.560017,92.6998295 169.560017,92.6998295 169.945585,93.4011648 C170.331153,94.1025 170.331153,94.1025 170.331153,95.2193182 L170.331153,95.2193182 L170.331153,102 L168.390017,102 L168.390017,100.603977 L168.310244,100.603977 L168.225419,100.757673 C168.040347,101.064 168.040347,101.064 167.731892,101.361818 C167.346324,101.734091 167.346324,101.734091 166.741381,101.980057 C166.136437,102.226023 166.136437,102.226023 165.292176,102.226023 C164.321608,102.226023 164.321608,102.226023 163.537176,101.863722 C162.752744,101.50142 162.752744,101.50142 162.297375,100.810057 C161.842006,100.118693 161.842006,100.118693 161.842006,99.1148864 C161.842006,98.2506818 161.842006,98.2506818 162.174392,97.6922727 C162.506778,97.1338636 162.506778,97.1338636 163.071835,96.808125 C163.636892,96.4823864 163.636892,96.4823864 164.334903,96.3161932 C165.032915,96.15 165.032915,96.15 165.757517,96.0635795 C166.674903,95.9572159 166.674903,95.9572159 167.246608,95.8874148 C167.818312,95.8176136 167.818312,95.8176136 168.077574,95.6580682 C168.336835,95.4985227 168.336835,95.4985227 168.336835,95.1395455 L168.336835,95.1395455 L168.336835,95.0930114 L168.330803,94.9043308 C168.282545,94.1689773 168.282545,94.1689773 167.848227,93.7435227 C167.359619,93.2648864 167.359619,93.2648864 166.395699,93.2648864 C165.391892,93.2648864 165.391892,93.2648864 164.816864,93.7069602 C164.241835,94.1490341 164.241835,94.1490341 164.02246,94.6875 L164.02246,94.6875 L162.154449,94.2620455 L162.242375,94.0349321 C162.567023,93.2594851 162.567023,93.2594851 163.128341,92.7563352 C163.769847,92.1813068 163.769847,92.1813068 164.60746,91.9187216 C165.445074,91.6561364 165.445074,91.6561364 166.369108,91.6561364 Z M148.059054,88.1993182 C149.441782,88.1993182 149.441782,88.1993182 150.502094,88.6846023 C151.562407,89.1698864 151.562407,89.1698864 152.173998,90.0174716 C152.785588,90.8650568 152.785588,90.8650568 152.812179,91.9619318 L152.812179,91.9619318 L150.831157,91.9619318 L150.803236,91.7773577 C150.647679,90.9657699 150.647679,90.9657699 149.953657,90.496108 C149.18252,89.9742614 149.18252,89.9742614 148.01252,89.9742614 C147.174907,89.9742614 147.174907,89.9742614 146.563316,90.2368466 C145.951725,90.4994318 145.951725,90.4994318 145.616015,90.9548011 C145.280304,91.4101705 145.280304,91.4101705 145.280304,91.9885227 C145.280304,92.4738068 145.280304,92.4738068 145.509651,92.8261364 C145.738998,93.1784659 145.738998,93.1784659 146.114594,93.4144602 C146.490191,93.6504545 146.490191,93.6504545 146.922293,93.8066761 C147.354395,93.9628977 147.354395,93.9628977 147.753259,94.0626136 L147.753259,94.0626136 L149.082804,94.4082955 L149.41062,94.4951314 C149.905461,94.6359801 149.905461,94.6359801 150.418998,94.8403977 C151.103713,95.1129545 151.103713,95.1129545 151.688713,95.5583523 C152.273713,96.00375 152.273713,96.00375 152.636015,96.661875 C152.998316,97.32 152.998316,97.32 152.998316,98.2373864 C152.998316,99.3940909 152.998316,99.3940909 152.403344,100.291534 C151.808373,101.188977 151.808373,101.188977 150.681583,101.7075 C149.554793,102.226023 149.554793,102.226023 147.959338,102.226023 C146.430361,102.226023 146.430361,102.226023 145.313543,101.740739 C144.196725,101.255455 144.196725,101.255455 143.565191,100.361335 C142.933657,99.4672159 142.933657,99.4672159 142.867179,98.2373864 L142.867179,98.2373864 L144.927975,98.2373864 L144.952463,98.4431267 C145.048109,99.0450852 145.048109,99.0450852 145.409935,99.463892 C145.832066,99.9525 145.832066,99.9525 146.493515,100.188494 C147.154963,100.424489 147.154963,100.424489 147.946043,100.424489 C148.816895,100.424489 148.816895,100.424489 149.498287,100.148608 C150.179679,99.8727273 150.179679,99.8727273 150.571895,99.3774716 C150.964111,98.8822159 150.964111,98.8822159 150.964111,98.2174432 C150.964111,97.6125 150.964111,97.6125 150.621753,97.2269318 C150.279395,96.8413636 150.279395,96.8413636 149.697719,96.58875 C149.116043,96.3361364 149.116043,96.3361364 148.384793,96.1433523 L148.384793,96.1433523 L146.776043,95.7046023 L146.455789,95.6113347 C145.045307,95.1727841 145.045307,95.1727841 144.186753,94.395 C143.232804,93.5307955 143.232804,93.5307955 143.232804,92.1081818 C143.232804,90.9315341 143.232804,90.9315341 143.870986,90.0540341 C144.509168,89.1765341 144.509168,89.1765341 145.599395,88.6879261 C146.689623,88.1993182 146.689623,88.1993182 148.059054,88.1993182 Z M298.79957,91.6561364 C300.235479,91.6561364 300.235479,91.6561364 301.305763,92.3142614 C302.376047,92.9723864 302.376047,92.9723864 302.967695,94.1623295 C303.559342,95.3522727 303.559342,95.3522727 303.559342,96.9410795 C303.559342,98.5232386 303.559342,98.5232386 302.967695,99.7065341 C302.376047,100.88983 302.376047,100.88983 301.305763,101.547955 C300.235479,102.20608 300.235479,102.20608 298.79957,102.20608 C297.363661,102.20608 297.363661,102.20608 296.293376,101.547955 C295.223092,100.88983 295.223092,100.88983 294.631445,99.7065341 C294.039797,98.5232386 294.039797,98.5232386 294.039797,96.9410795 C294.039797,95.3522727 294.039797,95.3522727 294.631445,94.1623295 C295.223092,92.9723864 295.223092,92.9723864 296.293376,92.3142614 C297.363661,91.6561364 297.363661,91.6561364 298.79957,91.6561364 Z M283.035596,91.6561364 C283.8998,91.6561364 283.8998,91.6561364 284.710823,91.9419886 C285.521846,92.2278409 285.521846,92.2278409 286.166675,92.8394318 C286.811505,93.4510227 286.811505,93.4510227 287.183777,94.4249148 C287.55605,95.3988068 287.55605,95.3988068 287.55605,96.7881818 L287.55605,96.7881818 L287.55605,97.4928409 L280.299028,97.4923409 L280.302393,97.6043981 C280.336359,98.3435423 280.336359,98.3435423 280.574119,98.9106765 L280.659033,99.0949432 C281.021334,99.8128977 281.021334,99.8128977 281.672812,100.188494 C282.324289,100.564091 282.324289,100.564091 283.195141,100.564091 C283.760198,100.564091 283.760198,100.564091 284.225539,100.401222 C284.69088,100.238352 284.69088,100.238352 285.029914,99.9126136 C285.368948,99.586875 285.368948,99.586875 285.548437,99.1082386 L285.548437,99.1082386 L287.429743,99.4472727 L287.357907,99.680418 C287.120624,100.367033 287.120624,100.367033 286.622045,100.899801 C286.040368,101.521364 286.040368,101.521364 285.166192,101.863722 C284.292016,102.20608 284.292016,102.20608 283.175198,102.20608 C281.666164,102.20608 281.666164,102.20608 280.57926,101.557926 C279.492357,100.909773 279.492357,100.909773 278.904033,99.7298011 C278.315709,98.5498295 278.315709,98.5498295 278.315709,96.9610227 C278.315709,95.3921591 278.315709,95.3921591 278.904033,94.1955682 C279.492357,92.9989773 279.492357,92.9989773 280.55267,92.3275568 C281.612982,91.6561364 281.612982,91.6561364 283.035596,91.6561364 Z M262.033213,91.6561364 C262.897417,91.6561364 262.897417,91.6561364 263.70844,91.9419886 C264.519463,92.2278409 264.519463,92.2278409 265.164292,92.8394318 C265.809122,93.4510227 265.809122,93.4510227 266.181394,94.4249148 C266.553667,95.3988068 266.553667,95.3988068 266.553667,96.7881818 L266.553667,96.7881818 L266.553667,97.4928409 L259.297028,97.4923409 L259.30001,97.6043981 C259.333976,98.3435423 259.333976,98.3435423 259.571736,98.9106765 L259.65665,99.0949432 C260.018951,99.8128977 260.018951,99.8128977 260.670428,100.188494 C261.321906,100.564091 261.321906,100.564091 262.192758,100.564091 C262.757815,100.564091 262.757815,100.564091 263.223156,100.401222 C263.688497,100.238352 263.688497,100.238352 264.027531,99.9126136 C264.366565,99.586875 264.366565,99.586875 264.546053,99.1082386 L264.546053,99.1082386 L266.42736,99.4472727 L266.355524,99.680418 C266.118241,100.367033 266.118241,100.367033 265.619661,100.899801 C265.037985,101.521364 265.037985,101.521364 264.163809,101.863722 C263.289633,102.20608 263.289633,102.20608 262.172815,102.20608 C260.663781,102.20608 260.663781,102.20608 259.576877,101.557926 C258.489974,100.909773 258.489974,100.909773 257.90165,99.7298011 C257.313326,98.5498295 257.313326,98.5498295 257.313326,96.9610227 C257.313326,95.3921591 257.313326,95.3921591 257.90165,94.1955682 C258.489974,92.9989773 258.489974,92.9989773 259.550286,92.3275568 C260.610599,91.6561364 260.610599,91.6561364 262.033213,91.6561364 Z M220.71981,91.6561364 C221.584015,91.6561364 221.584015,91.6561364 222.395037,91.9419886 C223.20606,92.2278409 223.20606,92.2278409 223.85089,92.8394318 C224.495719,93.4510227 224.495719,93.4510227 224.867992,94.4249148 C225.240265,95.3988068 225.240265,95.3988068 225.240265,96.7881818 L225.240265,96.7881818 L225.240265,97.4928409 L217.983028,97.4923409 L217.986607,97.6043981 C218.020573,98.3435423 218.020573,98.3435423 218.258333,98.9106765 L218.343247,99.0949432 C218.705549,99.8128977 218.705549,99.8128977 219.357026,100.188494 C220.008503,100.564091 220.008503,100.564091 220.879355,100.564091 C221.444412,100.564091 221.444412,100.564091 221.909753,100.401222 C222.375094,100.238352 222.375094,100.238352 222.714128,99.9126136 C223.053162,99.586875 223.053162,99.586875 223.232651,99.1082386 L223.232651,99.1082386 L225.113958,99.4472727 L225.042122,99.680418 C224.804838,100.367033 224.804838,100.367033 224.306259,100.899801 C223.724583,101.521364 223.724583,101.521364 222.850407,101.863722 C221.97623,102.20608 221.97623,102.20608 220.859412,102.20608 C219.350378,102.20608 219.350378,102.20608 218.263475,101.557926 C217.176571,100.909773 217.176571,100.909773 216.588247,99.7298011 C215.999924,98.5498295 215.999924,98.5498295 215.999924,96.9610227 C215.999924,95.3921591 215.999924,95.3921591 216.588247,94.1955682 C217.176571,92.9989773 217.176571,92.9989773 218.236884,92.3275568 C219.297196,91.6561364 219.297196,91.6561364 220.71981,91.6561364 Z M321.656669,91.6561364 C322.520873,91.6561364 322.520873,91.6561364 323.331896,91.9419886 C324.142919,92.2278409 324.142919,92.2278409 324.787748,92.8394318 C325.432578,93.4510227 325.432578,93.4510227 325.80485,94.4249148 C326.177123,95.3988068 326.177123,95.3988068 326.177123,96.7881818 L326.177123,96.7881818 L326.177123,97.4928409 L318.920028,97.4923409 L318.923466,97.6043981 C318.957432,98.3435423 318.957432,98.3435423 319.195192,98.9106765 L319.280106,99.0949432 C319.642407,99.8128977 319.642407,99.8128977 320.293885,100.188494 C320.945362,100.564091 320.945362,100.564091 321.816214,100.564091 C322.381271,100.564091 322.381271,100.564091 322.846612,100.401222 C323.311953,100.238352 323.311953,100.238352 323.650987,99.9126136 C323.990021,99.586875 323.990021,99.586875 324.16951,99.1082386 L324.16951,99.1082386 L326.050816,99.4472727 L325.97898,99.680418 C325.741697,100.367033 325.741697,100.367033 325.243118,100.899801 C324.661441,101.521364 324.661441,101.521364 323.787265,101.863722 C322.913089,102.20608 322.913089,102.20608 321.796271,102.20608 C320.287237,102.20608 320.287237,102.20608 319.200333,101.557926 C318.11343,100.909773 318.11343,100.909773 317.525106,99.7298011 C316.936782,98.5498295 316.936782,98.5498295 316.936782,96.9610227 C316.936782,95.3921591 316.936782,95.3921591 317.525106,94.1955682 C318.11343,92.9989773 318.11343,92.9989773 319.173743,92.3275568 C320.234055,91.6561364 320.234055,91.6561364 321.656669,91.6561364 Z M177.29243,91.6561364 C178.455782,91.6561364 178.455782,91.6561364 179.366521,92.0849148 C180.27726,92.5136932 180.27726,92.5136932 180.838993,93.2848295 C181.400726,94.0559659 181.400726,94.0559659 181.507089,95.0863636 L181.507089,95.0863636 L179.572601,95.0863636 L179.526326,94.9099911 C179.342008,94.3035937 179.342008,94.3035937 178.844674,93.8498864 C178.276294,93.3313636 178.276294,93.3313636 177.325669,93.3313636 C176.494703,93.3313636 176.494703,93.3313636 175.87314,93.7667898 C175.251578,94.2022159 175.251578,94.2022159 174.905896,95.003267 C174.560214,95.8043182 174.560214,95.8043182 174.560214,96.8945455 C174.560214,98.0113636 174.560214,98.0113636 174.899248,98.8223864 C175.238282,99.6334091 175.238282,99.6334091 175.859845,100.078807 C176.481407,100.524205 176.481407,100.524205 177.325669,100.524205 C177.890726,100.524205 177.890726,100.524205 178.352743,100.314801 C178.81476,100.105398 178.81476,100.105398 179.130527,99.7131818 C179.446294,99.3209659 179.446294,99.3209659 179.572601,98.7692045 L179.572601,98.7692045 L181.507089,98.7692045 L181.473747,99.0135085 C181.333417,99.8569389 181.333417,99.8569389 180.86226,100.5375 C180.323794,101.315284 180.323794,101.315284 179.423027,101.760682 C178.52226,102.20608 178.52226,102.20608 177.312373,102.20608 C175.82993,102.20608 175.82993,102.20608 174.76297,101.531335 C173.69601,100.856591 173.69601,100.856591 173.124305,99.6666477 C172.552601,98.4767045 172.552601,98.4767045 172.552601,96.9410795 C172.552601,95.3855114 172.552601,95.3855114 173.137601,94.1922443 C173.722601,92.9989773 173.722601,92.9989773 174.786237,92.3275568 C175.849873,91.6561364 175.849873,91.6561364 177.29243,91.6561364 Z M229.635519,88.3854545 L229.635519,93.444375 L229.755178,93.444375 L229.83043,93.31275 C229.993166,93.0415227 229.993166,93.0415227 230.253757,92.7064773 C230.579496,92.2876705 230.579496,92.2876705 231.157848,91.9719034 C231.7362,91.6561364 231.7362,91.6561364 232.686825,91.6561364 C233.923303,91.6561364 233.923303,91.6561364 234.893871,92.2810227 C235.864439,92.9059091 235.864439,92.9059091 236.419524,94.0825568 C236.974609,95.2592045 236.974609,95.2592045 236.974609,96.9144886 C236.974609,98.5697727 236.974609,98.5697727 236.422848,99.7497443 C235.871087,100.929716 235.871087,100.929716 234.907166,101.564574 C233.943246,102.199432 233.943246,102.199432 232.706769,102.199432 C231.776087,102.199432 231.776087,102.199432 231.187763,101.886989 C230.599439,101.574545 230.599439,101.574545 230.267053,101.155739 C229.934666,100.736932 229.934666,100.736932 229.755178,100.411193 L229.755178,100.411193 L229.588984,100.411193 L229.588984,102 L227.647848,102 L227.647848,88.3854545 L229.635519,88.3854545 Z M119.688777,91.7890909 L119.688777,98.0446023 L119.695917,98.2712816 C119.753038,99.1569886 119.753038,99.1569886 120.267129,99.7065341 C120.845481,100.324773 120.845481,100.324773 121.769515,100.324773 C122.327925,100.324773 122.327925,100.324773 122.88301,100.045568 C123.438095,99.7663636 123.438095,99.7663636 123.807044,99.2013068 C124.175993,98.63625 124.175993,98.63625 124.169345,97.7653977 L124.169345,97.7653977 L124.169345,91.7890909 L126.163663,91.7890909 L126.163663,102 L124.209231,102 L124.209231,100.231705 L124.102868,100.231705 L124.00819,100.431812 C123.653731,101.117099 123.653731,101.117099 122.976078,101.591165 C122.201618,102.132955 122.201618,102.132955 121.051561,102.132955 C120.067697,102.132955 120.067697,102.132955 119.31318,101.697528 C118.558663,101.262102 118.558663,101.262102 118.129885,100.404545 C117.701106,99.5469886 117.701106,99.5469886 117.701106,98.2839205 L117.701106,98.2839205 L117.701106,91.7890909 L119.688777,91.7890909 Z M157.998513,89.3427273 L157.998,91.79 L160.092547,91.7890909 L160.092547,93.3845455 L157.998,93.385 L157.998513,99.001875 L158.003314,99.1866264 C158.02732,99.6284233 158.02732,99.6284233 158.171354,99.8694034 C158.344195,100.15858 158.344195,100.15858 158.620075,100.261619 C158.895956,100.364659 158.895956,100.364659 159.221695,100.364659 C159.461013,100.364659 159.461013,100.364659 159.640502,100.33142 C159.81999,100.298182 159.81999,100.298182 159.919706,100.278239 L159.919706,100.278239 L160.278683,101.920227 L160.183122,101.953674 C160.02607,102.004155 160.02607,102.004155 159.786752,102.056506 C159.467661,102.126307 159.467661,102.126307 158.989024,102.132955 C158.204592,102.14625 158.204592,102.14625 157.526524,101.85375 C156.848456,101.56125 156.848456,101.56125 156.429649,100.949659 L156.429649,100.949659 L156.331491,100.791879 C156.010842,100.222564 156.010842,100.222564 156.010842,99.4140341 L156.010842,99.4140341 L156.01,93.385 L154.515104,93.3845455 L154.515104,91.7890909 L156.01,91.79 L156.010842,89.3427273 L157.998513,89.3427273 Z M200.330124,88.3854545 L202.982567,98.92875 L203.108874,98.92875 L205.867681,88.3854545 L208.008249,88.3854545 L210.767056,98.9353977 L210.893363,98.9353977 L213.539158,88.3854545 L215.706317,88.3854545 L211.92376,102 L209.856317,102 L206.991147,91.8023864 L206.884783,91.8023864 L204.019613,102 L201.945522,102 L198.169613,88.3854545 L200.330124,88.3854545 Z M46.6534091,65.6363636 L58.2301136,93.9034091 L58.65625,93.9034091 L70.2329545,65.6363636 L77.4815341,65.6363636 L77.4815341,83.0014205 L77.9254261,83.0014205 L93.1775568,65.6363636 L100.084517,65.6363636 L85.4183239,82.0071023 L100.137784,102 L93.5326705,102 L81.7784091,85.7535511 L77.4815341,90.6896307 L77.4815341,102 L71.6711648,102 L71.6711648,75.6860795 L71.3338068,75.6860795 L60.609375,101.946733 L56.2769886,101.946733 L45.5525568,75.6683239 L45.2151989,75.6683239 L45.2151989,102 L39.9950284,102 L39.9950284,65.6363636 L46.6534091,65.6363636 Z M115.938352,88.3854545 L115.938352,90.15375 L109.549886,90.15375 L109.549886,94.3019318 L115.333409,94.3019318 L115.333409,96.0635795 L109.549886,96.0635795 L109.549886,102 L107.495739,102 L107.495739,88.3854545 L115.938352,88.3854545 Z M333.045332,91.6361932 C333.231468,91.6361932 333.231468,91.6361932 333.487406,91.6494886 C333.743343,91.6627841 333.743343,91.6627841 333.889593,91.6827273 L333.889593,91.6827273 L333.889593,93.5839773 L333.834284,93.570283 C333.708775,93.5420966 333.708775,93.5420966 333.464139,93.5075284 C333.158343,93.4643182 333.158343,93.4643182 332.852548,93.4643182 C332.147889,93.4643182 332.147889,93.4643182 331.599451,93.760142 C331.051014,94.0559659 331.051014,94.0559659 330.731923,94.5778125 C330.412832,95.0996591 330.412832,95.0996591 330.412832,95.7644318 L330.412832,95.7644318 L330.412832,102 L328.425161,102 L328.425161,91.7890909 L330.346355,91.7890909 L330.346355,93.4111364 L330.452718,93.4111364 L330.529219,93.21051 C330.820421,92.5274041 330.820421,92.5274041 331.439906,92.1115057 C332.147889,91.6361932 332.147889,91.6361932 333.045332,91.6361932 Z M248.936083,88.3854545 L249.265654,88.3911097 C251.056708,88.4533168 251.056708,88.4533168 252.372958,89.1998011 C253.808868,90.0141477 253.808868,90.0141477 254.57668,91.5331534 C255.344493,93.0521591 255.344493,93.0521591 255.344493,95.1727841 C255.344493,97.3000568 255.344493,97.3000568 254.570032,98.8290341 C253.795572,100.358011 253.795572,100.358011 252.333072,101.179006 C250.870572,102 250.870572,102 248.796481,102 L248.796481,102 L244.389038,102 L244.389038,88.3854545 L248.936083,88.3854545 Z M130.851417,88.3854545 L130.851417,102 L128.863747,102 L128.863747,88.3854545 L130.851417,88.3854545 Z M135.545819,88.3854545 L135.545819,102 L133.558149,102 L133.558149,88.3854545 L135.545819,88.3854545 Z M185.663025,88.3854545 L185.663,96.111 L185.835866,96.1101136 L189.904275,91.7890909 L192.284161,91.7890909 L188.15,96.173 L192.563366,102 L190.12365,102 L186.65,97.39 L185.663,98.377 L185.663025,102 L183.675355,102 L183.675355,88.3854545 L185.663025,88.3854545 Z M269.825455,91.7890909 L272.411421,99.6467045 L272.517785,99.6467045 L275.097103,91.7890909 L277.231023,91.7890909 L273.528239,102 L271.400967,102 L267.691535,91.7890909 L269.825455,91.7890909 Z M291.791759,88.3854545 L291.791759,102 L289.804088,102 L289.804088,88.3854545 L291.791759,88.3854545 Z M168.343483,97.0009091 L168.293093,97.0427898 C168.176625,97.1252216 168.176625,97.1252216 167.934648,97.197017 C167.632176,97.2867614 167.632176,97.2867614 167.246608,97.3499148 C166.86104,97.4130682 166.86104,97.4130682 166.495415,97.4629261 C166.12979,97.5127841 166.12979,97.5127841 165.883824,97.5460227 C165.305472,97.6191477 165.305472,97.6191477 164.830159,97.7919886 C164.354847,97.9648295 164.354847,97.9648295 164.072318,98.2872443 C163.78979,98.6096591 163.78979,98.6096591 163.78979,99.1414773 C163.78979,99.879375 163.78979,99.879375 164.334903,100.254972 C164.880017,100.630568 164.880017,100.630568 165.724278,100.630568 C166.548597,100.630568 166.548597,100.630568 167.13692,100.30483 C167.725244,99.9790909 167.725244,99.9790909 168.034364,99.4505966 C168.343483,98.9221023 168.343483,98.9221023 168.343483,98.3171591 L168.343483,98.3171591 L168.343483,97.0009091 Z M298.806217,93.3180682 C297.868888,93.3180682 297.868888,93.3180682 297.253973,93.8166477 C296.639058,94.3152273 296.639058,94.3152273 296.343234,95.1362216 C296.047411,95.9572159 296.047411,95.9572159 296.047411,96.9344318 C296.047411,97.9182955 296.047411,97.9182955 296.343234,98.7359659 C296.639058,99.5536364 296.639058,99.5536364 297.253973,100.045568 C297.868888,100.5375 297.868888,100.5375 298.806217,100.5375 C299.736899,100.5375 299.736899,100.5375 300.34849,100.045568 C300.960081,99.5536364 300.960081,99.5536364 301.255905,98.7359659 C301.551729,97.9182955 301.551729,97.9182955 301.551729,96.9344318 C301.551729,95.9572159 301.551729,95.9572159 301.255905,95.1362216 C300.960081,94.3152273 300.960081,94.3152273 300.34849,93.8166477 C299.736899,93.3180682 299.736899,93.3180682 298.806217,93.3180682 Z M310.420903,93.3446591 C309.556699,93.3446591 309.556699,93.3446591 308.961727,93.7900568 C308.366756,94.2354545 308.366756,94.2354545 308.06096,95.0331818 C307.755165,95.8309091 307.755165,95.8309091 307.755165,96.8945455 C307.755165,97.9714773 307.755165,97.9714773 308.067608,98.7825 C308.380051,99.5935227 308.380051,99.5935227 308.971699,100.048892 C309.563346,100.504261 309.563346,100.504261 310.420903,100.504261 C311.311699,100.504261 311.311699,100.504261 311.909994,100.028949 C312.50829,99.5536364 312.50829,99.5536364 312.817409,98.7359659 C313.126528,97.9182955 313.126528,97.9182955 313.126528,96.8945455 C313.126528,95.8840909 313.126528,95.8840909 312.824057,95.0797159 C312.521585,94.2753409 312.521585,94.2753409 311.919966,93.81 C311.318346,93.3446591 311.318346,93.3446591 310.420903,93.3446591 Z M232.261371,93.3446591 C231.397166,93.3446591 231.397166,93.3446591 230.802195,93.7900568 C230.207223,94.2354545 230.207223,94.2354545 229.901428,95.0331818 C229.595632,95.8309091 229.595632,95.8309091 229.595632,96.8945455 C229.595632,97.9714773 229.595632,97.9714773 229.908075,98.7825 C230.220519,99.5935227 230.220519,99.5935227 230.812166,100.048892 C231.403814,100.504261 231.403814,100.504261 232.261371,100.504261 C233.152166,100.504261 233.152166,100.504261 233.750462,100.028949 C234.348757,99.5536364 234.348757,99.5536364 234.657877,98.7359659 C234.966996,97.9182955 234.966996,97.9182955 234.966996,96.8945455 C234.966996,95.8840909 234.966996,95.8840909 234.664524,95.0797159 C234.362053,94.2753409 234.362053,94.2753409 233.760433,93.81 C233.158814,93.3446591 233.158814,93.3446591 232.261371,93.3446591 Z M248.809777,90.1803409 L246.443186,90.1803409 L246.443186,100.205114 L248.68347,100.205114 C250.239038,100.205114 250.239038,100.205114 251.269436,99.6167898 C252.299833,99.0284659 252.299833,99.0284659 252.811708,97.9083239 C253.323583,96.7881818 253.323583,96.7881818 253.323583,95.1727841 C253.323583,93.5706818 253.323583,93.5706818 252.815032,92.4538636 C252.306481,91.3370455 252.306481,91.3370455 251.302674,90.7586932 C250.298868,90.1803409 250.298868,90.1803409 248.809777,90.1803409 L248.809777,90.1803409 Z M262.046508,93.298125 C261.208894,93.298125 261.208894,93.298125 260.587332,93.7069602 C259.965769,94.1157955 259.965769,94.1157955 259.630059,94.7705966 C259.342308,95.3318547 259.342308,95.3318547 259.3012,95.9736996 L259.3012,95.9736996 L259.3,96.004 L264.605883,96.00375 L264.599371,95.7832218 C264.560299,95.1324229 264.560299,95.1324229 264.286792,94.6110511 C263.967701,94.0027841 263.967701,94.0027841 263.392673,93.6504545 C262.817644,93.298125 262.817644,93.298125 262.046508,93.298125 Z M283.048891,93.298125 C282.211277,93.298125 282.211277,93.298125 281.589715,93.7069602 C280.968152,94.1157955 280.968152,94.1157955 280.632442,94.7705966 C280.344691,95.3318547 280.344691,95.3318547 280.303583,95.9736996 L280.303583,95.9736996 L280.302,96.004 L285.608266,96.00375 L285.601754,95.7832218 C285.562682,95.1324229 285.562682,95.1324229 285.289175,94.6110511 C284.970084,94.0027841 284.970084,94.0027841 284.395056,93.6504545 C283.820027,93.298125 283.820027,93.298125 283.048891,93.298125 Z M321.669964,93.298125 C320.83235,93.298125 320.83235,93.298125 320.210788,93.7069602 C319.589225,94.1157955 319.589225,94.1157955 319.253515,94.7705966 C318.965764,95.3318547 318.965764,95.3318547 318.924656,95.9736996 L318.924656,95.9736996 L318.923,96.004 L324.229339,96.00375 L324.222827,95.7832218 C324.183755,95.1324229 324.183755,95.1324229 323.910248,94.6110511 C323.591157,94.0027841 323.591157,94.0027841 323.016129,93.6504545 C322.4411,93.298125 322.4411,93.298125 321.669964,93.298125 Z M220.733105,93.298125 C219.895492,93.298125 219.895492,93.298125 219.273929,93.7069602 C218.652367,94.1157955 218.652367,94.1157955 218.316657,94.7705966 C218.028905,95.3318547 218.028905,95.3318547 217.987798,95.9736996 L217.987798,95.9736996 L217.986,96.004 L223.29248,96.00375 L223.285968,95.7832218 C223.246896,95.1324229 223.246896,95.1324229 222.97339,94.6110511 C222.654299,94.0027841 222.654299,94.0027841 222.07927,93.6504545 C221.504242,93.298125 221.504242,93.298125 220.733105,93.298125 Z M209.981518,68.6561364 C210.593109,68.6561364 210.593109,68.6561364 211.281148,68.7990625 C211.969188,68.9419886 211.969188,68.9419886 212.570808,69.3209091 C213.172427,69.6998295 213.172427,69.6998295 213.557995,70.4011648 C213.943563,71.1025 213.943563,71.1025 213.943563,72.2193182 L213.943563,72.2193182 L213.943563,79 L212.002427,79 L212.002427,77.6039773 L211.922654,77.6039773 L211.837829,77.7576727 C211.652756,78.064 211.652756,78.064 211.344302,78.3618182 C210.958734,78.7340909 210.958734,78.7340909 210.353791,78.9800568 C209.748847,79.2260227 209.748847,79.2260227 208.904586,79.2260227 C207.934018,79.2260227 207.934018,79.2260227 207.149586,78.8637216 C206.365154,78.5014205 206.365154,78.5014205 205.909785,77.8100568 C205.454416,77.1186932 205.454416,77.1186932 205.454416,76.1148864 C205.454416,75.2506818 205.454416,75.2506818 205.786802,74.6922727 C206.119188,74.1338636 206.119188,74.1338636 206.684245,73.808125 C207.249302,73.4823864 207.249302,73.4823864 207.947313,73.3161932 C208.645325,73.15 208.645325,73.15 209.369927,73.0635795 C210.287313,72.9572159 210.287313,72.9572159 210.859018,72.8874148 C211.430722,72.8176136 211.430722,72.8176136 211.689984,72.6580682 C211.949245,72.4985227 211.949245,72.4985227 211.949245,72.1395455 L211.949245,72.1395455 L211.949245,72.0930114 L211.943213,71.9043308 C211.894955,71.1689773 211.894955,71.1689773 211.460637,70.7435227 C210.972029,70.2648864 210.972029,70.2648864 210.008109,70.2648864 C209.004302,70.2648864 209.004302,70.2648864 208.429273,70.7069602 C207.854245,71.1490341 207.854245,71.1490341 207.63487,71.6875 L207.63487,71.6875 L205.766859,71.2620455 L205.854785,71.0349321 C206.179433,70.2594851 206.179433,70.2594851 206.740751,69.7563352 C207.382256,69.1813068 207.382256,69.1813068 208.21987,68.9187216 C209.057484,68.6561364 209.057484,68.6561364 209.981518,68.6561364 Z M154.885164,68.6561364 C155.496755,68.6561364 155.496755,68.6561364 156.184795,68.7990625 C156.872834,68.9419886 156.872834,68.9419886 157.474454,69.3209091 C158.076073,69.6998295 158.076073,69.6998295 158.461641,70.4011648 C158.847209,71.1025 158.847209,71.1025 158.847209,72.2193182 L158.847209,72.2193182 L158.847209,79 L156.906073,79 L156.906073,77.6039773 L156.8263,77.6039773 L156.741475,77.7576727 C156.556403,78.064 156.556403,78.064 156.247948,78.3618182 C155.86238,78.7340909 155.86238,78.7340909 155.257437,78.9800568 C154.652493,79.2260227 154.652493,79.2260227 153.808232,79.2260227 C152.837664,79.2260227 152.837664,79.2260227 152.053232,78.8637216 C151.2688,78.5014205 151.2688,78.5014205 150.813431,77.8100568 C150.358062,77.1186932 150.358062,77.1186932 150.358062,76.1148864 C150.358062,75.2506818 150.358062,75.2506818 150.690448,74.6922727 C151.022834,74.1338636 151.022834,74.1338636 151.587891,73.808125 C152.152948,73.4823864 152.152948,73.4823864 152.850959,73.3161932 C153.548971,73.15 153.548971,73.15 154.273573,73.0635795 C155.190959,72.9572159 155.190959,72.9572159 155.762664,72.8874148 C156.334368,72.8176136 156.334368,72.8176136 156.59363,72.6580682 C156.852891,72.4985227 156.852891,72.4985227 156.852891,72.1395455 L156.852891,72.1395455 L156.852891,72.0930114 L156.846859,71.9043308 C156.798601,71.1689773 156.798601,71.1689773 156.364283,70.7435227 C155.875675,70.2648864 155.875675,70.2648864 154.911755,70.2648864 C153.907948,70.2648864 153.907948,70.2648864 153.33292,70.7069602 C152.757891,71.1490341 152.757891,71.1490341 152.538516,71.6875 L152.538516,71.6875 L150.670505,71.2620455 L150.758431,71.0349321 C151.083079,70.2594851 151.083079,70.2594851 151.644397,69.7563352 C152.285903,69.1813068 152.285903,69.1813068 153.123516,68.9187216 C153.96113,68.6561364 153.96113,68.6561364 154.885164,68.6561364 Z M165.788543,68.6561364 C166.652748,68.6561364 166.652748,68.6561364 167.46377,68.9419886 C168.274793,69.2278409 168.274793,69.2278409 168.919623,69.8394318 C169.564452,70.4510227 169.564452,70.4510227 169.936725,71.4249148 C170.308998,72.3988068 170.308998,72.3988068 170.308998,73.7881818 L170.308998,73.7881818 L170.308998,74.4928409 L163.052028,74.4923409 L163.05534,74.6043981 C163.089306,75.3435423 163.089306,75.3435423 163.327066,75.9106765 L163.41198,76.0949432 C163.774282,76.8128977 163.774282,76.8128977 164.425759,77.1884943 C165.077236,77.5640909 165.077236,77.5640909 165.948088,77.5640909 C166.513145,77.5640909 166.513145,77.5640909 166.978486,77.4012216 C167.443827,77.2383523 167.443827,77.2383523 167.782861,76.9126136 C168.121895,76.586875 168.121895,76.586875 168.301384,76.1082386 L168.301384,76.1082386 L170.182691,76.4472727 L170.110855,76.680418 C169.873571,77.3670333 169.873571,77.3670333 169.374992,77.8998011 C168.793316,78.5213636 168.793316,78.5213636 167.91914,78.8637216 C167.044963,79.2060795 167.044963,79.2060795 165.928145,79.2060795 C164.419111,79.2060795 164.419111,79.2060795 163.332208,78.5579261 C162.245304,77.9097727 162.245304,77.9097727 161.65698,76.7298011 C161.068657,75.5498295 161.068657,75.5498295 161.068657,73.9610227 C161.068657,72.3921591 161.068657,72.3921591 161.65698,71.1955682 C162.245304,69.9989773 162.245304,69.9989773 163.305617,69.3275568 C164.365929,68.6561364 164.365929,68.6561364 165.788543,68.6561364 Z M133.151531,68.6561364 C134.314883,68.6561364 134.314883,68.6561364 135.225622,69.0849148 C136.13636,69.5136932 136.13636,69.5136932 136.698093,70.2848295 C137.259826,71.0559659 137.259826,71.0559659 137.36619,72.0863636 L137.36619,72.0863636 L135.431701,72.0863636 L135.385427,71.9099911 C135.201108,71.3035937 135.201108,71.3035937 134.703775,70.8498864 C134.135394,70.3313636 134.135394,70.3313636 133.184769,70.3313636 C132.353804,70.3313636 132.353804,70.3313636 131.732241,70.7667898 C131.110679,71.2022159 131.110679,71.2022159 130.764997,72.003267 C130.419315,72.8043182 130.419315,72.8043182 130.419315,73.8945455 C130.419315,75.0113636 130.419315,75.0113636 130.758349,75.8223864 C131.097383,76.6334091 131.097383,76.6334091 131.718946,77.0788068 C132.340508,77.5242045 132.340508,77.5242045 133.184769,77.5242045 C133.749826,77.5242045 133.749826,77.5242045 134.211843,77.3148011 C134.67386,77.1053977 134.67386,77.1053977 134.989627,76.7131818 C135.305394,76.3209659 135.305394,76.3209659 135.431701,75.7692045 L135.431701,75.7692045 L137.36619,75.7692045 L137.332847,76.0135085 C137.192518,76.8569389 137.192518,76.8569389 136.72136,77.5375 C136.182894,78.3152841 136.182894,78.3152841 135.282127,78.7606818 C134.38136,79.2060795 134.38136,79.2060795 133.171474,79.2060795 C131.689031,79.2060795 131.689031,79.2060795 130.622071,78.5313352 C129.55511,77.8565909 129.55511,77.8565909 128.983406,76.6666477 C128.411701,75.4767045 128.411701,75.4767045 128.411701,73.9410795 C128.411701,72.3855114 128.411701,72.3855114 128.996701,71.1922443 C129.581701,69.9989773 129.581701,69.9989773 130.645338,69.3275568 C131.708974,68.6561364 131.708974,68.6561364 133.151531,68.6561364 Z M232.632537,68.6561364 C233.496742,68.6561364 233.496742,68.6561364 234.307765,68.9419886 C235.118787,69.2278409 235.118787,69.2278409 235.763617,69.8394318 C236.408446,70.4510227 236.408446,70.4510227 236.780719,71.4249148 C237.152992,72.3988068 237.152992,72.3988068 237.152992,73.7881818 L237.152992,73.7881818 L237.152992,74.4928409 L229.896028,74.4923409 L229.899335,74.6043981 C229.9333,75.3435423 229.9333,75.3435423 230.17106,75.9106765 L230.255975,76.0949432 C230.618276,76.8128977 230.618276,76.8128977 231.269753,77.1884943 C231.92123,77.5640909 231.92123,77.5640909 232.792083,77.5640909 C233.35714,77.5640909 233.35714,77.5640909 233.82248,77.4012216 C234.287821,77.2383523 234.287821,77.2383523 234.626855,76.9126136 C234.96589,76.586875 234.96589,76.586875 235.145378,76.1082386 L235.145378,76.1082386 L237.026685,76.4472727 L236.954849,76.680418 C236.717566,77.3670333 236.717566,77.3670333 236.218986,77.8998011 C235.63731,78.5213636 235.63731,78.5213636 234.763134,78.8637216 C233.888958,79.2060795 233.888958,79.2060795 232.77214,79.2060795 C231.263105,79.2060795 231.263105,79.2060795 230.176202,78.5579261 C229.089299,77.9097727 229.089299,77.9097727 228.500975,76.7298011 C227.912651,75.5498295 227.912651,75.5498295 227.912651,73.9610227 C227.912651,72.3921591 227.912651,72.3921591 228.500975,71.1955682 C229.089299,69.9989773 229.089299,69.9989773 230.149611,69.3275568 C231.209924,68.6561364 231.209924,68.6561364 232.632537,68.6561364 Z M218.77092,65.3854545 L218.77092,70.444375 L218.890579,70.444375 L218.965831,70.31275 C219.128567,70.0415227 219.128567,70.0415227 219.389158,69.7064773 C219.714897,69.2876705 219.714897,69.2876705 220.293249,68.9719034 C220.871601,68.6561364 220.871601,68.6561364 221.822226,68.6561364 C223.058704,68.6561364 223.058704,68.6561364 224.029272,69.2810227 C224.99984,69.9059091 224.99984,69.9059091 225.554925,71.0825568 C226.11001,72.2592045 226.11001,72.2592045 226.11001,73.9144886 C226.11001,75.5697727 226.11001,75.5697727 225.558249,76.7497443 C225.006488,77.9297159 225.006488,77.9297159 224.042567,78.5645739 C223.078647,79.1994318 223.078647,79.1994318 221.84217,79.1994318 C220.911488,79.1994318 220.911488,79.1994318 220.323164,78.8869886 C219.73484,78.5745455 219.73484,78.5745455 219.402454,78.1557386 C219.070067,77.7369318 219.070067,77.7369318 218.890579,77.4111932 L218.890579,77.4111932 L218.724385,77.4111932 L218.724385,79 L216.783249,79 L216.783249,65.3854545 L218.77092,65.3854545 Z M141.495535,65.3854545 L141.495535,70.4510227 L141.621842,70.4510227 L141.717507,70.2502406 C142.073056,69.566044 142.073056,69.566044 142.718717,69.1414205 C143.456614,68.6561364 143.456614,68.6561364 144.646558,68.6561364 C145.696899,68.6561364 145.696899,68.6561364 146.484654,69.0882386 C147.27241,69.5203409 147.27241,69.5203409 147.707836,70.3745739 C148.143262,71.2288068 148.143262,71.2288068 148.143262,72.5051705 L148.143262,72.5051705 L148.143262,79 L146.155592,79 L146.155592,72.7444886 L146.149808,72.5248145 C146.097756,71.5588665 146.097756,71.5588665 145.577239,70.9994602 C144.998887,70.3778977 144.998887,70.3778977 143.968489,70.3778977 C143.26383,70.3778977 143.26383,70.3778977 142.708745,70.6770455 C142.15366,70.9761932 142.15366,70.9761932 141.837893,71.5512216 C141.522126,72.12625 141.522126,72.12625 141.522126,72.9372727 L141.522126,72.9372727 L141.522126,79 L139.534455,79 L139.534455,65.3854545 L141.495535,65.3854545 Z M109.988636,65.3854545 L114.322955,75.9686364 L114.4825,75.9686364 L118.816818,65.3854545 L121.309716,65.3854545 L121.309716,79 L119.355284,79 L119.355284,69.1480682 L119.228977,69.1480682 L115.21375,78.9800568 L113.591705,78.9800568 L109.576477,69.1414205 L109.45017,69.1414205 L109.45017,79 L107.495739,79 L107.495739,65.3854545 L109.988636,65.3854545 Z M126.163663,68.7890909 L126.163663,79 L124.175993,79 L124.175993,68.7890909 L126.163663,68.7890909 Z M199.762855,68.6561364 C200.806548,68.6561364 200.806548,68.6561364 201.59098,69.0915625 C202.375411,69.5269886 202.375411,69.5269886 202.807514,70.3845455 C203.239616,71.2421023 203.239616,71.2421023 203.239616,72.5051705 L203.239616,72.5051705 L203.239616,79 L201.251946,79 L201.251946,72.7444886 L201.246162,72.5272741 C201.19411,71.5714972 201.19411,71.5714972 200.673593,71.006108 C200.095241,70.3778977 200.095241,70.3778977 199.084786,70.3778977 C198.393423,70.3778977 198.393423,70.3778977 197.858281,70.6770455 C197.323139,70.9761932 197.323139,70.9761932 197.014019,71.5512216 C196.7049,72.12625 196.7049,72.12625 196.7049,72.9372727 L196.7049,72.9372727 L196.7049,79 L194.71723,79 L194.71723,68.7890909 L196.625127,68.7890909 L196.625127,70.4510227 L196.751434,70.4510227 L196.845801,70.2532528 C197.198078,69.5785085 197.198078,69.5785085 197.858281,69.1480682 C198.612798,68.6561364 198.612798,68.6561364 199.762855,68.6561364 Z M184.45868,65.3854545 L184.45868,71.8869318 L184.624873,71.8869318 L190.335271,65.3854545 L192.921237,65.3854545 L187.430214,71.5146591 L192.94118,79 L190.468226,79 L186.06743,72.9173295 L184.45868,74.7653977 L184.45868,79 L182.404532,79 L182.404532,65.3854545 L184.45868,65.3854545 Z M174.544706,65.3854545 L174.544706,79 L172.557036,79 L172.557036,65.3854545 L174.544706,65.3854545 Z M156.859539,74.0009091 L156.809149,74.0427898 C156.692681,74.1252216 156.692681,74.1252216 156.450704,74.197017 C156.148232,74.2867614 156.148232,74.2867614 155.762664,74.3499148 C155.377096,74.4130682 155.377096,74.4130682 155.011471,74.4629261 C154.645846,74.5127841 154.645846,74.5127841 154.39988,74.5460227 C153.821528,74.6191477 153.821528,74.6191477 153.346215,74.7919886 C152.870903,74.9648295 152.870903,74.9648295 152.588374,75.2872443 C152.305846,75.6096591 152.305846,75.6096591 152.305846,76.1414773 C152.305846,76.879375 152.305846,76.879375 152.850959,77.2549716 C153.396073,77.6305682 153.396073,77.6305682 154.240334,77.6305682 C155.064653,77.6305682 155.064653,77.6305682 155.652976,77.3048295 C156.2413,76.9790909 156.2413,76.9790909 156.55042,76.4505966 C156.859539,75.9221023 156.859539,75.9221023 156.859539,75.3171591 L156.859539,75.3171591 L156.859539,74.0009091 Z M211.955893,74.0009091 L211.905503,74.0427898 C211.789035,74.1252216 211.789035,74.1252216 211.547058,74.197017 C211.244586,74.2867614 211.244586,74.2867614 210.859018,74.3499148 C210.47345,74.4130682 210.47345,74.4130682 210.107825,74.4629261 C209.7422,74.5127841 209.7422,74.5127841 209.496234,74.5460227 C208.917881,74.6191477 208.917881,74.6191477 208.442569,74.7919886 C207.967256,74.9648295 207.967256,74.9648295 207.684728,75.2872443 C207.4022,75.6096591 207.4022,75.6096591 207.4022,76.1414773 C207.4022,76.879375 207.4022,76.879375 207.947313,77.2549716 C208.492427,77.6305682 208.492427,77.6305682 209.336688,77.6305682 C210.161006,77.6305682 210.161006,77.6305682 210.74933,77.3048295 C211.337654,76.9790909 211.337654,76.9790909 211.646773,76.4505966 C211.955893,75.9221023 211.955893,75.9221023 211.955893,75.3171591 L211.955893,75.3171591 L211.955893,74.0009091 Z M221.396772,70.3446591 C220.532567,70.3446591 220.532567,70.3446591 219.937596,70.7900568 C219.342624,71.2354545 219.342624,71.2354545 219.036829,72.0331818 C218.731033,72.8309091 218.731033,72.8309091 218.731033,73.8945455 C218.731033,74.9714773 218.731033,74.9714773 219.043476,75.7825 C219.35592,76.5935227 219.35592,76.5935227 219.947567,77.048892 C220.539215,77.5042614 220.539215,77.5042614 221.396772,77.5042614 C222.287567,77.5042614 222.287567,77.5042614 222.885863,77.0289489 C223.484158,76.5536364 223.484158,76.5536364 223.793278,75.7359659 C224.102397,74.9182955 224.102397,74.9182955 224.102397,73.8945455 C224.102397,72.8840909 224.102397,72.8840909 223.799925,72.0797159 C223.497454,71.2753409 223.497454,71.2753409 222.895834,70.81 C222.294215,70.3446591 222.294215,70.3446591 221.396772,70.3446591 Z M165.801838,70.298125 C164.964225,70.298125 164.964225,70.298125 164.342662,70.7069602 C163.7211,71.1157955 163.7211,71.1157955 163.38539,71.7705966 C163.097638,72.3318547 163.097638,72.3318547 163.056531,72.9736996 L163.056531,72.9736996 L163.055,73.004 L168.361213,73.00375 L168.354701,72.7832218 C168.315629,72.1324229 168.315629,72.1324229 168.042123,71.6110511 C167.723032,71.0027841 167.723032,71.0027841 167.148003,70.6504545 C166.572975,70.298125 166.572975,70.298125 165.801838,70.298125 Z M232.645833,70.298125 C231.808219,70.298125 231.808219,70.298125 231.186657,70.7069602 C230.565094,71.1157955 230.565094,71.1157955 230.229384,71.7705966 C229.941632,72.3318547 229.941632,72.3318547 229.900525,72.9736996 L229.900525,72.9736996 L229.899,73.004 L235.205208,73.00375 L235.198696,72.7832218 C235.159623,72.1324229 235.159623,72.1324229 234.886117,71.6110511 C234.567026,71.0027841 234.567026,71.0027841 233.991997,70.6504545 C233.416969,70.298125 233.416969,70.298125 232.645833,70.298125 Z M125.1798,64.8403409 C125.698322,64.8403409 125.698322,64.8403409 126.067271,65.1893466 C126.43622,65.5383523 126.43622,65.5383523 126.43622,66.0302841 C126.43622,66.5155682 126.43622,66.5155682 126.067271,66.8645739 C125.698322,67.2135795 125.698322,67.2135795 125.1798,67.2135795 C124.661277,67.2135795 124.661277,67.2135795 124.292328,66.8645739 C123.923379,66.5155682 123.923379,66.5155682 123.923379,66.0302841 C123.923379,65.5383523 123.923379,65.5383523 124.292328,65.1893466 C124.661277,64.8403409 124.661277,64.8403409 125.1798,64.8403409 Z" id="Combined-Shape"></path>
        </g>
    </g>
</svg>